<?xml version="1.0" encoding="utf-8"?>
<!-- Generator: Adobe Illustrator 18.1.1, SVG Export Plug-In . SVG Version: 6.00 Build 0)  -->
<svg version="1.1" id="レイヤー_1" xmlns="http://www.w3.org/2000/svg" xmlns:xlink="http://www.w3.org/1999/xlink" x="0px"
	 y="0px" viewBox="0 0 460.6 410.9" enable-background="new 0 0 460.6 410.9" xml:space="preserve">
<polygon fill="#FFFFFF" points="460.6,46.8 233.2,1 233.2,33.4 460.6,72 "/>
<path opacity="0.35" enable-background="new    " d="M2.1,105.4v203.3l49.6,8.5V188.5l48.6,91.6h1.1l51.2-91.9v138.3l58.6,8.7v-258
	L148.4,86l-48,93L54.8,97.1L2.1,105.4z M1,46.8L233.2,1v34.1L1,73.5V46.8z"/>
<path fill="#FFFFFF" d="M460.6,362.2l-227.4,45.7V374l227.4-36.9V362.2z"/>
<path opacity="0.35" enable-background="new    " d="M1,362.2l232.2,45.7V374L1,335.4V362.2z"/>
<g>
	<g>
		<g>
			<g>
				<polygon fill="#FFFFFF" points="458.6,101.9 392.6,94.1 335.5,87.3 248.7,77 248.7,134.7 335.5,140.4 335.5,324.4 392.6,317.7 
					392.6,144.1 458.6,148.4 				"/>
			</g>
		</g>
	</g>
</g>
</svg>
